<svg width="44" height="44" viewBox="0 0 44 44" fill="none" xmlns="http://www.w3.org/2000/svg">
<path d="M21.7912 43.5824C33.8262 43.5824 43.5824 33.8262 43.5824 21.7912C43.5824 9.75626 33.8262 0 21.7912 0C9.75626 0 0 9.75626 0 21.7912C0 33.8262 9.75626 43.5824 21.7912 43.5824Z" fill="url(#paint0_radial_113_735)"/>
<path d="M30.5531 37.1096H13.0299C9.41429 37.1096 6.47278 34.1679 6.47278 30.5522V13.0296C6.47278 9.41368 9.41429 6.47217 13.0299 6.47217H30.5531C34.1687 6.47217 37.1102 9.41368 37.1102 13.0296V30.5522C37.1102 34.1679 34.1687 37.1096 30.5531 37.1096ZM13.0299 10.0487C11.3862 10.0487 10.0493 11.386 10.0493 13.0296V30.5522C10.0493 32.196 11.3864 33.5329 13.0299 33.5329H30.5531C32.1968 33.5329 33.5337 32.1958 33.5337 30.5522V13.0296C33.5337 11.386 32.1966 10.0487 30.5531 10.0487H13.0299Z" fill="#F1F2F2"/>
<path d="M21.7913 30.2545C17.1246 30.2545 13.328 26.4576 13.328 21.7912C13.328 17.1247 17.1246 13.3279 21.7913 13.3279C26.458 13.3279 30.255 17.1247 30.255 21.7912C30.255 26.4576 26.458 30.2545 21.7913 30.2545ZM21.7913 16.9046C19.0967 16.9046 16.9045 19.0966 16.9045 21.7912C16.9045 24.4857 19.0967 26.6777 21.7913 26.6777C24.4861 26.6777 26.6783 24.4857 26.6783 21.7912C26.6783 19.0966 24.4861 16.9046 21.7913 16.9046Z" fill="#F1F2F2"/>
<path d="M31.9771 13.5925C31.9771 14.434 31.2947 15.1162 30.4532 15.1162C29.6118 15.1162 28.9296 14.434 28.9296 13.5925C28.9296 12.7511 29.6118 12.0691 30.4532 12.0691C31.2947 12.0691 31.9771 12.7511 31.9771 13.5925Z" fill="#F1F2F2"/>
<defs>
<radialGradient id="paint0_radial_113_735" cx="0" cy="0" r="1" gradientUnits="userSpaceOnUse" gradientTransform="translate(8.39702 36.742) scale(43.1502 43.1502)">
<stop stop-color="#FEC053"/>
<stop offset="0.3273" stop-color="#F2203E"/>
<stop offset="0.6485" stop-color="#B729A8"/>
<stop offset="1" stop-color="#5342D6"/>
</radialGradient>
</defs>
</svg>
