<svg width="48" height="48" viewBox="0 0 48 48" fill="none" xmlns="http://www.w3.org/2000/svg">
<path d="M41.3118 23.6064C41.3118 33.3846 33.385 41.3115 23.6068 41.3115C19.8772 41.3115 16.4169 40.1583 13.5631 38.189L7.51129 39.7019L9.09714 33.755C7.08343 30.8813 5.90173 27.3819 5.90173 23.6064C5.90173 13.8282 13.8286 5.90137 23.6068 5.90137C33.385 5.90137 41.3118 13.8282 41.3118 23.6064Z" fill="url(#paint0_linear_113_730)"/>
<path fill-rule="evenodd" clip-rule="evenodd" d="M23.6067 44.2622C35.0147 44.2622 44.2626 35.0143 44.2626 23.6063C44.2626 12.1984 35.0147 2.95044 23.6067 2.95044C12.1988 2.95044 2.95081 12.1984 2.95081 23.6063C2.95081 27.311 3.92606 30.7878 5.63382 33.7941L2.95081 44.2622L13.7433 41.7596C16.6743 43.3554 20.0346 44.2622 23.6067 44.2622ZM23.6067 41.0845C33.2596 41.0845 41.0848 33.2593 41.0848 23.6063C41.0848 13.9535 33.2596 6.12828 23.6067 6.12828C13.9538 6.12828 6.12864 13.9535 6.12864 23.6063C6.12864 27.3334 7.29518 30.788 9.28308 33.6247L7.71755 39.4954L13.6918 38.0019C16.509 39.946 19.9249 41.0845 23.6067 41.0845Z" fill="white"/>
<path d="M18.4428 14.0161C17.9518 13.0296 17.1983 13.117 16.4372 13.117C15.077 13.117 12.9561 14.7462 12.9561 17.7786C12.9561 20.2636 14.0511 22.9838 17.7411 27.0532C21.3021 30.9805 25.9813 33.012 29.8658 32.9428C33.7503 32.8737 34.5495 29.5309 34.5495 28.402C34.5495 27.9017 34.2389 27.6521 34.0251 27.5842C32.7014 26.9489 30.2599 25.7652 29.7044 25.5428C29.1489 25.3205 28.8588 25.6213 28.6785 25.7849C28.1748 26.2649 27.1762 27.6798 26.8342 27.9981C26.4924 28.3163 25.9826 28.1552 25.7705 28.035C24.9898 27.7217 22.8733 26.7803 21.1863 25.1447C19.0998 23.1222 18.9773 22.4263 18.5843 21.8069C18.2699 21.3113 18.5006 21.0074 18.6157 20.8744C19.0653 20.3558 19.686 19.555 19.9644 19.157C20.2426 18.759 20.0218 18.1548 19.8891 17.7786C19.3189 16.16 18.8357 14.8051 18.4428 14.0161Z" fill="white"/>
<defs>
<linearGradient id="paint0_linear_113_730" x1="39.0987" y1="10.3276" x2="5.90173" y2="41.3115" gradientUnits="userSpaceOnUse">
<stop stop-color="#5BD066"/>
<stop offset="1" stop-color="#27B43E"/>
</linearGradient>
</defs>
</svg>
