<svg width="52" height="53" viewBox="0 0 52 53" fill="none" xmlns="http://www.w3.org/2000/svg">
<path d="M21.8854 49.055L21.8866 49.0553C23.3748 49.3539 24.9144 49.5126 26.4937 49.5126C39.7528 49.5126 50.5 38.7653 50.5 25.5074C50.5 12.2494 39.7505 1.5 26.4926 1.5C13.2336 1.5 2.48633 12.2483 2.48633 25.5063C2.48633 31.1564 4.44929 36.3355 7.72179 40.4357C8.57538 41.5025 9.21984 42.8762 9.46274 44.2664C9.7034 45.6438 9.57709 47.2418 8.58946 48.5196C7.9197 49.3872 7.09842 50.217 6.11719 50.7338C7.68326 51.0887 10.235 51.0907 13.4711 49.8288L21.8854 49.055ZM21.8854 49.055C19.3802 48.5545 15.8236 48.9112 13.4712 49.8288L21.8854 49.055ZM4.58573 51.2324L4.56012 51.0408L4.58485 51.2325C4.58514 51.2325 4.58543 51.2325 4.58573 51.2324ZM4.58306 50.0735C4.58338 50.0735 4.58674 50.077 4.59219 50.0842C4.58547 50.0772 4.58274 50.0736 4.58306 50.0735Z" stroke="#2B63F0" stroke-width="3"/>
</svg>
