<svg width="40" height="47" viewBox="0 0 40 47" fill="none" xmlns="http://www.w3.org/2000/svg">
<path d="M14.0003 23.6001C14.0003 26.9138 11.314 29.6001 8.00025 29.6001C4.68654 29.6001 2.00024 26.9138 2.00024 23.6001C2.00024 20.2864 4.68654 17.6001 8.00025 17.6001C11.314 17.6001 14.0003 20.2864 14.0003 23.6001Z" stroke="#2B63F0" stroke-width="3.60001"/>
<path d="M26.0003 10.3999L14.0002 18.7999" stroke="#2B63F0" stroke-width="3.60001" stroke-linecap="round"/>
<path d="M26.0003 36.8004L14.0002 28.4004" stroke="#2B63F0" stroke-width="3.60001" stroke-linecap="round"/>
<path d="M38.0003 39.2002C38.0003 42.5139 35.3139 45.2002 32.0003 45.2002C28.6866 45.2002 26.0002 42.5139 26.0002 39.2002C26.0002 35.8865 28.6866 33.2002 32.0003 33.2002C35.3139 33.2002 38.0003 35.8865 38.0003 39.2002Z" stroke="#2B63F0" stroke-width="3.60001"/>
<path d="M38.0003 8.00001C38.0003 11.3137 35.3139 14 32.0003 14C28.6866 14 26.0002 11.3137 26.0002 8.00001C26.0002 4.6863 28.6866 2 32.0003 2C35.3139 2 38.0003 4.6863 38.0003 8.00001Z" stroke="#2B63F0" stroke-width="3.60001"/>
</svg>
