<svg width="72" height="72" viewBox="0 0 72 72" fill="none" xmlns="http://www.w3.org/2000/svg">
<path d="M36 62.9997L31.65 59.0997C26.6 54.5497 22.425 50.6247 19.125 47.3247C15.825 44.0247 13.2 41.0622 11.25 38.4372C9.3 35.8122 7.9375 33.3997 7.1625 31.1997C6.3875 28.9997 6 26.7497 6 24.4497C6 19.7497 7.575 15.8247 10.725 12.6747C13.875 9.52471 17.8 7.94971 22.5 7.94971C25.1 7.94971 27.575 8.49971 29.925 9.59971C32.275 10.6997 34.3 12.2497 36 14.2497C37.7 12.2497 39.725 10.6997 42.075 9.59971C44.425 8.49971 46.9 7.94971 49.5 7.94971C54.2 7.94971 58.125 9.52471 61.275 12.6747C64.425 15.8247 66 19.7497 66 24.4497C66 26.7497 65.6125 28.9997 64.8375 31.1997C64.0625 33.3997 62.7 35.8122 60.75 38.4372C58.8 41.0622 56.175 44.0247 52.875 47.3247C49.575 50.6247 45.4 54.5497 40.35 59.0997L36 62.9997ZM36 54.8997C40.8 50.5997 44.75 46.9122 47.85 43.8372C50.95 40.7622 53.4 38.0872 55.2 35.8122C57 33.5372 58.25 31.5122 58.95 29.7372C59.65 27.9622 60 26.1997 60 24.4497C60 21.4497 59 18.9497 57 16.9497C55 14.9497 52.5 13.9497 49.5 13.9497C47.15 13.9497 44.975 14.6122 42.975 15.9372C40.975 17.2622 39.6 18.9497 38.85 20.9997H33.15C32.4 18.9497 31.025 17.2622 29.025 15.9372C27.025 14.6122 24.85 13.9497 22.5 13.9497C19.5 13.9497 17 14.9497 15 16.9497C13 18.9497 12 21.4497 12 24.4497C12 26.1997 12.35 27.9622 13.05 29.7372C13.75 31.5122 15 33.5372 16.8 35.8122C18.6 38.0872 21.05 40.7622 24.15 43.8372C27.25 46.9122 31.2 50.5997 36 54.8997Z" fill="#2B63F0"/>
</svg>
