<svg width="51" height="46" viewBox="0 0 51 46" fill="none" xmlns="http://www.w3.org/2000/svg">
<path d="M15.6238 21.2358L14.6261 20.2273C14.6261 20.2273 13.0926 18.9103 11.3443 19.5074C8.30046 20.5466 4.7838 19.4215 2.34473 16.9793C1.65087 16.2855 0.808174 14.8933 0.808174 14.8933C0.711508 14.7613 0.677713 14.594 0.717598 14.4344L0.906414 13.6577C0.941681 13.5119 1.0354 13.3875 1.16429 13.3108C1.29328 13.2356 1.4483 13.2156 1.59104 13.2571L7.58204 14.9241C7.80465 14.9855 8.04258 14.9026 8.17766 14.7169L10.9298 10.9255C11.0142 10.8103 11.0496 10.666 11.0296 10.5263L10.4755 6.49854C10.4463 6.27907 10.2897 6.10097 10.0763 6.04114L3.74915 4.2805C3.46367 4.20063 3.29018 3.90592 3.36081 3.61582L3.61103 2.59816C3.64482 2.45385 3.73687 2.33105 3.86281 2.25433C3.86281 2.25433 4.35862 1.92581 4.71936 1.74014C8.31274 -0.115687 12.8378 0.459993 15.851 3.47465C18.0767 5.70035 18.9486 8.74889 18.5403 11.6438C18.2256 13.8695 18.373 15.053 19.3339 16.0692C19.4214 16.1597 19.6976 16.436 20.1244 16.8551L15.6238 21.2358Z" fill="#2B63F0"/>
<path d="M30.2337 26.6787C36.9492 33.1855 44.2742 40.2648 44.2742 40.2648C44.5244 40.5044 44.6671 40.8343 44.6718 41.1798C44.6764 41.5236 44.5397 41.8567 44.2972 42.1007L41.1596 45.2383C40.914 45.4823 40.5825 45.6174 40.2371 45.6129C39.8917 45.6098 39.5632 45.4655 39.3253 45.2169L25.6379 31.3698L30.2337 26.6787Z" fill="#2B63F0"/>
<path d="M1.73988 41.9996C1.49585 41.7556 1.36077 41.424 1.36529 41.0786C1.36834 40.7332 1.51265 40.4048 1.76129 40.1653L28.6588 13.9893L32.9767 18.3087L6.71322 45.1156C6.47371 45.3659 6.1453 45.5086 5.79989 45.5132C5.45448 45.5178 5.12293 45.3812 4.87733 45.1372L1.73988 41.9996Z" fill="#2B63F0"/>
<path d="M26.0278 0.861955C29.2666 -0.401298 34.5039 -0.584022 37.537 2.44763C39.9255 4.83611 43.4191 8.33125 43.4191 8.33125C44.664 9.57456 43.5081 10.8087 44.4276 11.7267C45.347 12.6461 46.8161 11.7267 47.6434 12.554L50.6765 15.5885C51.1078 16.0183 51.1078 16.7183 50.6765 17.1497L46.4506 21.3755C46.0193 21.8069 45.3193 21.8069 44.888 21.3755L41.8549 18.3424C41.026 17.515 41.9471 16.046 41.026 15.1281C39.7873 13.8878 38.4349 14.0982 37.6536 14.8779L36.0925 16.439L34.401 16.8841L30.0831 12.5662L30.5804 10.9268C31.9574 9.54843 32.1538 7.95352 31.2911 7.09089C29.9556 5.75543 27.7499 3.82602 25.6838 2.99865C24.3669 2.47219 24.7645 1.16129 26.0278 0.861955ZM31.8853 7.82306C31.8914 7.82768 31.3097 7.10778 31.2989 7.09855L31.8853 7.82306Z" fill="#2B63F0"/>
</svg>
