<svg width="59" height="56" viewBox="0 0 59 56" fill="none" xmlns="http://www.w3.org/2000/svg">
<path d="M43.8077 41.959C51.7093 34.2502 51.7093 21.7517 43.8077 14.0429C35.9062 6.3341 23.0953 6.3341 15.1937 14.0429C7.29218 21.7517 7.29218 34.2502 15.1937 41.959C23.0953 49.6679 35.9062 49.6679 43.8077 41.959Z" fill="#2B63F0" stroke="#2B63F0" stroke-width="1.3678" stroke-miterlimit="10"/>
<path d="M30.807 26.1407C30.9064 26.0364 30.946 26.004 30.9738 25.9644C32.3331 24.0289 34.2752 23.4592 36.5414 23.7994C39.1605 24.1927 40.8364 25.9811 41.2642 28.7179C41.3658 29.3668 41.416 30.0179 41.416 30.6742C41.415 33.3985 41.4096 36.1227 41.4224 38.848C41.4246 39.1548 41.3465 39.2445 41.0246 39.2414C39.5616 39.2247 38.0975 39.2247 36.6345 39.2414C36.3147 39.2445 36.2323 39.1558 36.2345 38.848C36.2462 36.3074 36.242 33.7657 36.2398 31.2251C36.2398 30.6471 36.1981 30.0732 36.0313 29.515C35.4976 27.7214 33.4057 27.0912 31.9171 28.2849C31.1117 28.9286 30.7973 29.7811 30.8037 30.7837C30.8166 33.1804 30.808 35.5781 30.808 37.9747C30.808 38.2888 30.7898 38.6049 30.8134 38.9169C30.8337 39.1882 30.7203 39.2414 30.4679 39.2393C28.9782 39.2299 27.4873 39.2289 25.9976 39.2393C25.727 39.2414 25.6297 39.1882 25.6329 38.8981C25.6543 36.7373 25.6639 34.5764 25.665 32.4156C25.665 29.7571 25.6596 27.0975 25.6414 24.439C25.6393 24.1479 25.7024 24.0613 26.0104 24.0654C27.5002 24.0821 28.991 24.079 30.4808 24.0675C30.7492 24.0654 30.8241 24.1437 30.8155 24.3983C30.7973 24.946 30.8102 25.4949 30.8102 26.1428L30.807 26.1407Z" fill="white" stroke="white" stroke-width="0.273561" stroke-miterlimit="10"/>
<path d="M22.7978 31.6531C22.7978 34.0487 22.7924 36.4453 22.8042 38.8409C22.8052 39.1383 22.7443 39.2447 22.4117 39.2405C20.9358 39.2217 19.4589 39.2259 17.983 39.2374C17.7093 39.2395 17.6162 39.1727 17.6173 38.892C17.6248 34.0602 17.6237 29.2293 17.6162 24.3974C17.6162 24.146 17.6782 24.0615 17.9499 24.0635C19.4535 24.0761 20.9561 24.0771 22.4587 24.0635C22.7582 24.0604 22.8052 24.1668 22.8042 24.4256C22.7946 26.8348 22.7988 29.2439 22.7988 31.6531H22.7978Z" fill="white" stroke="white" stroke-width="0.273561" stroke-miterlimit="10"/>
<path d="M20.2492 16.762C22.2299 16.7641 23.5164 18.2947 23.0469 20.0893C22.6919 21.4446 21.2556 22.2251 19.5969 21.9622C17.8354 21.6836 16.8537 20.0058 17.5028 18.3855C17.9082 17.3734 18.9445 16.7609 20.2492 16.762Z" fill="white" stroke="white" stroke-width="0.273561" stroke-miterlimit="10"/>
</svg>
